# xmcd
#
# Track frame offsets:
#	150
#	9100
#	19782
#	29235
#	40532
#	50315
#	60730
#	71652
#	85045
#	95557
#	106262
#	115760
#	125542
#	135295
#	144685
#	154425
#	165240
#	174045
#	183617
#	194527
#	206865
#	216592
#	226467
#	238722
#	250745
#	260612
#	269672
#	278985
#	289550
#	300607
#
# Disc length: 4171 seconds
#
# Revision: 0
# Processed by: cddbd v1.4PL0 Copyright (c) Steve Scherf et al.
# Submitted via: EasyCDDAExtractor 4.6.0.1
#
DISCID=b410491e
DTITLE=Johnnie and Jack and the Tennessee Mountain Boys - Johnnie and Jack and the
DTITLE=Tennessee Mountain Boys Vol 5
DYEAR=1900
DGENRE=Country
TTITLE0=Baby I Need You
TTITLE1=Sweet Lies
TTITLE2=Move It On Over
TTITLE3=No One Will Ever Know
TTITLE4=I Don't Mean To Cry
TTITLE5=I Wonder Where You Are Tonight
TTITLE6=Slowly
TTITLE7=Wedding Bells
TTITLE8=I Never Can Come Back To You
TTITLE9=You Are My Sunshine
TTITLE10=Stop The World (And Let Me Off)
TTITLE11=Camel Walk Stroll
TTITLE12=I've Seen This Movie Before
TTITLE13=Yeah
TTITLE14=Poison Love
TTITLE15=Leave Our Moon Alone
TTITLE16=Lovely Island Pearl
TTITLE17=That's The Way The Cookie Crumbles
TTITLE18=Ashes Of Love
TTITLE19=What About You
TTITLE20=Cryin' Heart Blues
TTITLE21=South In New Orleans
TTITLE22=Just When I Needed You
TTITLE23=I Can't Tell My Heart That
TTITLE24=Lonesome
TTITLE25=Three Ways Of Knowing
TTITLE26=No One Dear But You
TTITLE27=(Oh Baby Mine) I Get So Lonely
TTITLE28=Goodnight, Sweetheart, Goodnight
TTITLE29=With A Smile On My Lips
EXTD=
EXTT0=
EXTT1=
EXTT2=
EXTT3=
EXTT4=
EXTT5=
EXTT6=
EXTT7=
EXTT8=
EXTT9=
EXTT10=
EXTT11=
EXTT12=
EXTT13=
EXTT14=
EXTT15=
EXTT16=
EXTT17=
EXTT18=
EXTT19=
EXTT20=
EXTT21=
EXTT22=
EXTT23=
EXTT24=
EXTT25=
EXTT26=
EXTT27=
EXTT28=
EXTT29=
PLAYORDER=
